<svg width="38" height="38" viewBox="0 0 38 38" fill="none" xmlns="http://www.w3.org/2000/svg">
<circle cx="19" cy="19" r="19" fill="#BB9B75"/>
<path d="M16.6765 20.4879C16.6195 20.4879 15.3655 20.4879 14.7955 20.4879C14.4915 20.4879 14.3965 20.3739 14.3965 20.0889C14.3965 19.3289 14.3965 18.5499 14.3965 17.7899C14.3965 17.4859 14.5105 17.3909 14.7955 17.3909H16.6765C16.6765 17.3339 16.6765 16.2319 16.6765 15.7189C16.6765 14.9589 16.8095 14.2369 17.1895 13.5719C17.5885 12.8879 18.1585 12.4319 18.8805 12.1659C19.3555 11.9949 19.8305 11.9189 20.3435 11.9189H22.2055C22.4715 11.9189 22.5855 12.0329 22.5855 12.2989V14.4649C22.5855 14.7309 22.4715 14.8449 22.2055 14.8449C21.6925 14.8449 21.1795 14.8449 20.6665 14.8639C20.1535 14.8639 19.8875 15.1109 19.8875 15.6429C19.8685 16.2129 19.8875 16.7639 19.8875 17.3529H22.0915C22.3955 17.3529 22.5095 17.4669 22.5095 17.7709V20.0699C22.5095 20.3739 22.4145 20.4689 22.0915 20.4689C21.4075 20.4689 19.9445 20.4689 19.8875 20.4689V26.6629C19.8875 26.9859 19.7925 27.0999 19.4505 27.0999C18.6525 27.0999 17.8735 27.0999 17.0755 27.0999C16.7905 27.0999 16.6765 26.9859 16.6765 26.7009C16.6765 24.7059 16.6765 20.5449 16.6765 20.4879Z" fill="white"/>
</svg>
