<svg width="28" height="28" viewBox="0 0 28 28" fill="none" xmlns="http://www.w3.org/2000/svg">
<rect width="28" height="28" fill="white"/>
<g clip-path="url(#clip0_79_5)">
<path d="M20.5312 8.29883H6.46875C6.34443 8.29883 6.2252 8.34821 6.13729 8.43612C6.04939 8.52403 6 8.64326 6 8.76758V18.6175C6 18.7418 6.04939 18.861 6.13729 18.9489C6.2252 19.0368 6.34443 19.0862 6.46875 19.0862H13.584L13.5818 22.2322C13.5817 22.3141 13.6032 22.3945 13.6439 22.4656C13.6846 22.5366 13.7432 22.5958 13.8139 22.6371C13.8846 22.6784 13.9649 22.7005 14.0468 22.7012C14.1287 22.7018 14.2093 22.681 14.2807 22.6408L16.0281 21.6561L17.7755 22.6408C17.8468 22.681 17.9275 22.7018 18.0094 22.7012C18.0913 22.7005 18.1715 22.6784 18.2422 22.6371C18.3129 22.5958 18.3716 22.5366 18.4123 22.4656C18.453 22.3945 18.4744 22.3141 18.4744 22.2322L18.4722 19.083L20.5305 19.0862C20.5921 19.0863 20.6532 19.0743 20.7101 19.0508C20.7671 19.0272 20.8188 18.9927 20.8624 18.9492C20.9061 18.9057 20.9406 18.854 20.9642 18.797C20.9879 18.7401 21 18.6791 21 18.6175V8.76758C21 8.64326 20.9506 8.52403 20.8627 8.43612C20.7748 8.34821 20.6556 8.29883 20.5312 8.29883V8.29883ZM16.0285 18.9574C15.644 18.9574 15.2681 18.8434 14.9484 18.6298C14.6288 18.4162 14.3796 18.1126 14.2324 17.7573C14.0853 17.4021 14.0468 17.0112 14.1218 16.6341C14.1968 16.257 14.382 15.9106 14.6539 15.6387C14.9258 15.3669 15.2721 15.1817 15.6493 15.1067C16.0264 15.0317 16.4172 15.0702 16.7725 15.2173C17.1277 15.3645 17.4313 15.6136 17.6449 15.9333C17.8586 16.253 17.9726 16.6289 17.9726 17.0134C17.972 17.5288 17.767 18.0229 17.4025 18.3874C17.0381 18.7519 16.5439 18.9569 16.0285 18.9574V18.9574ZM16.2582 20.7097C16.188 20.6701 16.1087 20.6493 16.0281 20.6493C15.9475 20.6493 15.8682 20.6701 15.798 20.7097L14.5199 21.4299L14.5212 19.4683C14.9743 19.7471 15.496 19.8948 16.028 19.8949C16.5601 19.895 17.0818 19.7475 17.535 19.4688L17.5363 21.4299L16.2582 20.7097ZM20.0625 18.148L18.678 18.1458C18.8655 17.7074 18.9412 17.2294 18.8985 16.7545C18.8557 16.2797 18.6958 15.8228 18.4331 15.425C18.1703 15.0271 17.813 14.7007 17.393 14.4749C16.9731 14.2492 16.5037 14.1311 16.0269 14.1314C15.5501 14.1316 15.0809 14.2502 14.6612 14.4764C14.2415 14.7027 13.8845 15.0295 13.6222 15.4277C13.3599 15.8258 13.2005 16.2828 13.1582 16.7577C13.116 17.2326 13.1923 17.7106 13.3802 18.1488H6.9375V9.23633H20.0625V18.148ZM8.20333 10.9709C8.20333 10.8466 8.25272 10.7273 8.34062 10.6394C8.42853 10.5515 8.54776 10.5021 8.67208 10.5021H14.9896C15.1139 10.5021 15.2331 10.5515 15.3211 10.6394C15.409 10.7273 15.4583 10.8466 15.4583 10.9709C15.4583 11.0952 15.409 11.2144 15.3211 11.3023C15.2331 11.3902 15.1139 11.4396 14.9896 11.4396H8.67208C8.54776 11.4396 8.42853 11.3902 8.34062 11.3023C8.25272 11.2144 8.20333 11.0952 8.20333 10.9709V10.9709ZM8.20333 13.0978C8.20333 12.9735 8.25272 12.8543 8.34062 12.7664C8.42853 12.6785 8.54776 12.6291 8.67208 12.6291H12.258C12.3823 12.6291 12.5016 12.6785 12.5895 12.7664C12.6774 12.8543 12.7268 12.9735 12.7268 13.0978C12.7268 13.2222 12.6774 13.3414 12.5895 13.4293C12.5016 13.5172 12.3823 13.5666 12.258 13.5666H8.67208C8.54776 13.5666 8.42854 13.5172 8.34063 13.4293C8.25273 13.3414 8.20334 13.2222 8.20333 13.0979V13.0978Z" fill="#343434"/>
</g>
<defs>
<clipPath id="clip0_79_5">
<rect width="15" height="15" fill="white" transform="translate(6 8)"/>
</clipPath>
</defs>
</svg>
