<svg width="28" height="28" viewBox="0 0 28 28" fill="none" xmlns="http://www.w3.org/2000/svg">
<rect width="28" height="28" fill="white"/>
<g clip-path="url(#clip0_79_8)">
<path d="M9.66406 9.67578C9.45922 9.67578 9.29297 9.84203 9.29297 10.0469C9.29297 10.2517 9.45922 10.418 9.66406 10.418C9.86891 10.418 10.0352 10.2517 10.0352 10.0469C10.0352 9.84203 9.86891 9.67578 9.66406 9.67578Z" fill="#343434"/>
<path d="M23.0189 16.9486C22.1986 15.5279 20.3848 15.0416 18.9638 15.8621L17.4565 16.7323V13.5099C17.4565 13.1115 17.3247 12.7162 17.0854 12.3967L15.2301 9.92293V8.86954C15.6619 8.71636 15.9722 8.30392 15.9722 7.82013V6.11321C15.9721 5.49938 15.4728 5 14.8589 5H8.17958C7.56575 5 7.06633 5.49938 7.06633 6.11321V7.82016C7.06633 8.30388 7.3766 8.71639 7.80848 8.86958V9.92297L5.95298 12.3969C5.71377 12.7162 5.58203 13.1115 5.58203 13.5099V20.6965C5.58203 21.7196 6.41436 22.5518 7.43739 22.5518H13.4009C14.233 23.9465 16.0271 24.4133 17.4334 23.6013L21.9324 21.0037C23.3409 20.1904 23.8433 18.3772 23.0189 16.9486ZM7.80848 6.11321C7.80848 5.90859 7.97495 5.74211 8.17954 5.74211H14.8589C15.0635 5.74211 15.23 5.90859 15.23 6.11321V7.82016C15.23 8.02479 15.0635 8.19122 14.8589 8.19122H8.17958C7.97495 8.19122 7.80852 8.02475 7.80852 7.82016V6.11321H7.80848ZM6.54687 12.8419L8.47641 10.2693C8.52458 10.2051 8.55063 10.1269 8.55063 10.0466V8.93341H14.4878V9.67556H11.1482C10.9433 9.67556 10.7771 9.84173 10.7771 10.0467C10.7771 10.2516 10.9433 10.4177 11.1482 10.4177H14.6734L16.4915 12.8418C16.6103 13.0004 16.6841 13.1903 16.7064 13.3863H6.33209C6.35435 13.1902 6.42816 13.0004 6.54687 12.8419ZM7.43743 21.8097C6.8236 21.8097 6.32422 21.3103 6.32422 20.6965V20.3217H13.0661C12.9484 20.8028 12.9492 21.3167 13.0839 21.8097H7.43743V21.8097ZM13.3571 19.5832H6.32418V14.1284H16.7143V17.1607L14.4648 18.4596C13.9957 18.7306 13.6166 19.1163 13.3571 19.5832ZM17.0624 22.9585C15.9974 23.5735 14.6366 23.2098 14.0213 22.1441C13.403 21.0682 13.7777 19.7135 14.8359 19.1023L16.8501 17.9394L19.0766 21.7956L17.0624 22.9585ZM21.5613 20.361L19.7193 21.4245L17.4928 17.5682L19.3348 16.5048C20.4005 15.8896 21.7608 16.2539 22.3761 17.3196C22.9942 18.3907 22.6183 19.7506 21.5613 20.361Z" fill="#343434"/>
</g>
<defs>
<clipPath id="clip0_79_8">
<rect width="19" height="19" fill="white" transform="translate(5 5)"/>
</clipPath>
</defs>
</svg>
