<svg width="12" height="12" viewBox="0 0 12 12" fill="none" xmlns="http://www.w3.org/2000/svg">
<g clip-path="url(#clip0_97_15)">
<path d="M9.68318 0.924386H9.23558V0.471471C9.23558 0.212696 9.02582 0.00292969 8.76704 0.00292969C8.50826 0.00292969 8.2985 0.212696 8.2985 0.471471V0.924386H3.70148V0.471471C3.70148 0.212696 3.49171 0.00292969 3.23293 0.00292969C2.97416 0.00292969 2.76439 0.212696 2.76439 0.471471V0.924386H2.31682C1.03932 0.924386 0 1.9637 0 3.24118V9.68077C0 10.9583 1.03932 11.9976 2.31682 11.9976H9.6832C10.9607 11.9976 12 10.9583 12 9.68077V3.24118C12 1.9637 10.9607 0.924386 9.68318 0.924386ZM2.31682 1.86147H2.76439V2.77512C2.76439 3.0339 2.97416 3.24367 3.23293 3.24367C3.49171 3.24367 3.70148 3.0339 3.70148 2.77512V1.86147H8.29852V2.77512C8.29852 3.0339 8.50829 3.24367 8.76706 3.24367C9.02584 3.24367 9.23561 3.0339 9.23561 2.77512V1.86147H9.6832C10.444 1.86147 11.0629 2.48041 11.0629 3.24118V3.68878H0.937083V3.24118C0.937083 2.48041 1.55603 1.86147 2.31682 1.86147ZM9.68318 11.0605H2.31682C1.55603 11.0605 0.937083 10.4416 0.937083 9.68077V4.62586H11.0629V9.68077C11.0629 10.4416 10.444 11.0605 9.68318 11.0605ZM4.16222 6.4688C4.16222 6.72758 3.95245 6.93734 3.69368 6.93734H2.77222C2.51344 6.93734 2.30368 6.72758 2.30368 6.4688C2.30368 6.21002 2.51344 6.00026 2.77222 6.00026H3.69368C3.95243 6.00026 4.16222 6.21002 4.16222 6.4688ZM9.69635 6.4688C9.69635 6.72758 9.48658 6.93734 9.2278 6.93734H8.30635C8.04757 6.93734 7.83781 6.72758 7.83781 6.4688C7.83781 6.21002 8.04757 6.00026 8.30635 6.00026H9.2278C9.48656 6.00026 9.69635 6.21002 9.69635 6.4688ZM6.92661 6.4688C6.92661 6.72758 6.71684 6.93734 6.45807 6.93734H5.53661C5.27784 6.93734 5.06807 6.72758 5.06807 6.4688C5.06807 6.21002 5.27784 6.00026 5.53661 6.00026H6.45807C6.71682 6.00026 6.92661 6.21002 6.92661 6.4688ZM4.16222 9.23319C4.16222 9.49197 3.95245 9.70173 3.69368 9.70173H2.77222C2.51344 9.70173 2.30368 9.49197 2.30368 9.23319C2.30368 8.97442 2.51344 8.76465 2.77222 8.76465H3.69368C3.95243 8.76465 4.16222 8.97442 4.16222 9.23319ZM9.69635 9.23319C9.69635 9.49197 9.48658 9.70173 9.2278 9.70173H8.30635C8.04757 9.70173 7.83781 9.49197 7.83781 9.23319C7.83781 8.97442 8.04757 8.76465 8.30635 8.76465H9.2278C9.48656 8.76465 9.69635 8.97442 9.69635 9.23319ZM6.92661 9.23319C6.92661 9.49197 6.71684 9.70173 6.45807 9.70173H5.53661C5.27784 9.70173 5.06807 9.49197 5.06807 9.23319C5.06807 8.97442 5.27784 8.76465 5.53661 8.76465H6.45807C6.71682 8.76465 6.92661 8.97442 6.92661 9.23319Z" fill="#474747"/>
</g>
<defs>
<clipPath id="clip0_97_15">
<rect width="12" height="12" fill="white"/>
</clipPath>
</defs>
</svg>
