<svg width="26" height="30" viewBox="0 0 26 30" fill="none" xmlns="http://www.w3.org/2000/svg">
<g clip-path="url(#clip0_97_17)">
<path d="M11.8125 21.5625H6.1875C5.877 21.5625 5.625 21.8145 5.625 22.125C5.625 22.4355 5.877 22.6875 6.1875 22.6875H11.8125C12.123 22.6875 12.375 22.4355 12.375 22.125C12.375 21.8145 12.123 21.5625 11.8125 21.5625ZM12.9375 18.1875H5.0625C4.752 18.1875 4.5 18.4395 4.5 18.75C4.5 19.0605 4.752 19.3125 5.0625 19.3125H12.9375C13.248 19.3125 13.5 19.0605 13.5 18.75C13.5 18.4395 13.248 18.1875 12.9375 18.1875ZM9 12C4.02976 12 0 15.5257 0 19.875C0 22.3607 1.31906 24.5736 3.375 26.0169V30L7.31756 27.6077C7.86321 27.6977 8.42456 27.75 9 27.75C13.9708 27.75 18 24.2243 18 19.875C18 15.5257 13.9708 12 9 12ZM9 26.625C8.343 26.625 7.7085 26.5485 7.09874 26.4186L4.45047 28.0104L4.48591 25.4016C2.45588 24.1804 1.125 22.1621 1.125 19.875C1.125 16.1473 4.65074 13.125 9 13.125C13.3493 13.125 16.875 16.1473 16.875 19.875C16.875 23.6027 13.3493 26.625 9 26.625Z" fill="#474747"/>
</g>
<rect x="14" width="12" height="13" fill="#BB9B75"/>
<path d="M24 14.5L26 13H24V14.5Z" fill="#977B5B"/>
<path d="M18.2891 6.34766C18.2891 7.32422 18.4128 8.09896 18.6602 8.67188C18.9076 9.24479 19.2852 9.53125 19.793 9.53125C20.0664 9.53125 20.3008 9.44661 20.4961 9.27734C20.6914 9.10156 20.8411 8.86068 20.9453 8.55469C21.056 8.2487 21.1341 7.91667 21.1797 7.55859C21.2318 7.19401 21.2578 6.79036 21.2578 6.34766C21.2578 5.37109 21.1341 4.5931 20.8867 4.01367C20.6458 3.43424 20.2747 3.14453 19.7734 3.14453C19.2786 3.14453 18.9076 3.43099 18.6602 4.00391C18.4128 4.57682 18.2891 5.35807 18.2891 6.34766ZM17.4883 6.34766C17.4883 5.01953 17.7064 4.04948 18.1426 3.4375C18.5788 2.81901 19.1224 2.50977 19.7734 2.50977C20.4896 2.50977 21.0495 2.83854 21.4531 3.49609C21.8568 4.15365 22.0586 5.10417 22.0586 6.34766C22.0586 7.08984 21.9805 7.74089 21.8242 8.30078C21.6745 8.86068 21.4271 9.31315 21.082 9.6582C20.737 10.0033 20.3073 10.1758 19.793 10.1758C19.1354 10.1758 18.5853 9.86003 18.1426 9.22852C17.7064 8.59701 17.4883 7.63672 17.4883 6.34766Z" fill="white"/>
<defs>
<clipPath id="clip0_97_17">
<rect width="18" height="18" fill="white" transform="translate(0 12)"/>
</clipPath>
</defs>
</svg>
