<svg width="191" height="191" viewBox="0 0 191 191" fill="none" xmlns="http://www.w3.org/2000/svg">
<g filter="url(#filter0_d_1_914)">
<circle cx="95.5" cy="89.5" r="69.5" fill="url(#paint0_linear_1_914)"/>
</g>
<path d="M52.7031 95V82.6406H61.6719V95H59.6094V84.4062H54.75V95H52.7031ZM65.6406 90.5C65.6406 91.5417 65.8542 92.3177 66.2812 92.8281C66.7083 93.3385 67.2083 93.5938 67.7812 93.5938C68.3438 93.5938 68.8385 93.3385 69.2656 92.8281C69.6927 92.3177 69.9062 91.5417 69.9062 90.5C69.9062 89.4375 69.6927 88.6562 69.2656 88.1562C68.8385 87.6458 68.3438 87.3906 67.7812 87.3906C67.2188 87.3906 66.7188 87.6458 66.2812 88.1562C65.8542 88.6562 65.6406 89.4375 65.6406 90.5ZM63.6094 90.5C63.6094 89.1562 63.9635 88.0208 64.6719 87.0938C65.3802 86.1667 66.4167 85.7031 67.7812 85.7031C69.1354 85.7031 70.1667 86.1667 70.875 87.0938C71.5833 88.0208 71.9375 89.1562 71.9375 90.5C71.9375 90.9167 71.8958 91.3333 71.8125 91.75C71.7396 92.1667 71.6042 92.5938 71.4062 93.0312C71.2083 93.4583 70.9583 93.8385 70.6562 94.1719C70.3542 94.4948 69.9531 94.7604 69.4531 94.9688C68.9635 95.1771 68.4062 95.2812 67.7812 95.2812C67.1667 95.2812 66.6094 95.1823 66.1094 94.9844C65.6198 94.776 65.2188 94.5156 64.9062 94.2031C64.6042 93.8802 64.349 93.5052 64.1406 93.0781C63.9427 92.6406 63.8021 92.2135 63.7188 91.7969C63.6458 91.3698 63.6094 90.9375 63.6094 90.5ZM72.7969 93.3125H73.75C74.4583 92.3438 75 91.2812 75.375 90.125C75.75 88.9583 75.9427 87.5781 75.9531 85.9844H81.7812V93.3125H83.3125V98.4531H81.2812V95H74.8125V98.4531H72.7969V93.3125ZM76.0938 93.3125H79.75V87.6719H77.875C77.8333 88.4635 77.6615 89.375 77.3594 90.4062C77.0677 91.4271 76.6458 92.3958 76.0938 93.3125ZM86.7344 90.4844C86.7344 91.4323 86.9115 92.1875 87.2656 92.75C87.6302 93.3125 88.1354 93.5938 88.7812 93.5938C89.3958 93.5938 89.8958 93.3229 90.2812 92.7812C90.6667 92.2292 90.8594 91.4635 90.8594 90.4844C90.8594 89.5365 90.6719 88.7865 90.2969 88.2344C89.9323 87.6719 89.4271 87.3906 88.7812 87.3906C88.1458 87.3906 87.6458 87.6771 87.2812 88.25C86.9167 88.8229 86.7344 89.5677 86.7344 90.4844ZM84.7812 98.6875V85.9844H86.6875V87.1562C87.2396 86.1875 88.0312 85.7031 89.0625 85.7031C90.1562 85.7031 91.0625 86.1354 91.7812 87C92.5104 87.8542 92.875 89.0156 92.875 90.4844C92.875 91.3073 92.7604 92.0417 92.5312 92.6875C92.3021 93.3229 91.9948 93.8229 91.6094 94.1875C91.2344 94.5521 90.8281 94.8229 90.3906 95C89.9635 95.1875 89.5208 95.2812 89.0625 95.2812C88.4792 95.2812 87.9896 95.151 87.5938 94.8906C87.2083 94.6198 86.9271 94.3073 86.75 93.9531V98.6875H84.7812ZM96.0312 90.5C96.0312 91.5417 96.2448 92.3177 96.6719 92.8281C97.099 93.3385 97.599 93.5938 98.1719 93.5938C98.7344 93.5938 99.2292 93.3385 99.6562 92.8281C100.083 92.3177 100.297 91.5417 100.297 90.5C100.297 89.4375 100.083 88.6562 99.6562 88.1562C99.2292 87.6458 98.7344 87.3906 98.1719 87.3906C97.6094 87.3906 97.1094 87.6458 96.6719 88.1562C96.2448 88.6562 96.0312 89.4375 96.0312 90.5ZM94 90.5C94 89.1562 94.3542 88.0208 95.0625 87.0938C95.7708 86.1667 96.8073 85.7031 98.1719 85.7031C99.526 85.7031 100.557 86.1667 101.266 87.0938C101.974 88.0208 102.328 89.1562 102.328 90.5C102.328 90.9167 102.286 91.3333 102.203 91.75C102.13 92.1667 101.995 92.5938 101.797 93.0312C101.599 93.4583 101.349 93.8385 101.047 94.1719C100.745 94.4948 100.344 94.7604 99.8438 94.9688C99.3542 95.1771 98.7969 95.2812 98.1719 95.2812C97.5573 95.2812 97 95.1823 96.5 94.9844C96.0104 94.776 95.6094 94.5156 95.2969 94.2031C94.9948 93.8802 94.7396 93.5052 94.5312 93.0781C94.3333 92.6406 94.1927 92.2135 94.1094 91.7969C94.0365 91.3698 94 90.9375 94 90.5ZM103.438 90.5C103.438 87.5938 104.13 85.4479 105.516 84.0625C106.807 82.7708 108.615 82.0417 110.938 81.875L111.266 83.5625C110.526 83.5833 109.854 83.6823 109.25 83.8594C108.656 84.026 108.172 84.2448 107.797 84.5156C107.422 84.776 107.12 85.0365 106.891 85.2969C106.661 85.5469 106.479 85.8073 106.344 86.0781L106.141 86.4531C106.297 86.2552 106.526 86.0833 106.828 85.9375C107.141 85.7917 107.474 85.7188 107.828 85.7188C109.057 85.7188 110.016 86.1875 110.703 87.125C111.401 88.0521 111.75 89.1771 111.75 90.5C111.75 90.9167 111.714 91.3333 111.641 91.75C111.568 92.1667 111.432 92.5938 111.234 93.0312C111.036 93.4583 110.786 93.8385 110.484 94.1719C110.182 94.4948 109.781 94.7604 109.281 94.9688C108.792 95.1771 108.234 95.2812 107.609 95.2812C106.995 95.2812 106.438 95.1823 105.938 94.9844C105.448 94.776 105.047 94.5156 104.734 94.2031C104.432 93.8802 104.177 93.5052 103.969 93.0781C103.771 92.651 103.63 92.224 103.547 91.7969C103.474 91.3698 103.438 90.9375 103.438 90.5ZM105.469 90.5C105.469 91.5417 105.682 92.3177 106.109 92.8281C106.536 93.3385 107.036 93.5938 107.609 93.5938C108.172 93.5938 108.667 93.3385 109.094 92.8281C109.521 92.3177 109.734 91.5417 109.734 90.5C109.734 89.4375 109.521 88.6562 109.094 88.1562C108.667 87.6458 108.172 87.3906 107.609 87.3906C107.047 87.3906 106.547 87.6458 106.109 88.1562C105.682 88.6562 105.469 89.4375 105.469 90.5ZM113.391 95V85.9844H115.359V89.5312H118.859V85.9844H120.828V95H118.859V91.2188H115.359V95H113.391ZM122.469 90.4531C122.469 89.0052 122.865 87.8542 123.656 87C124.458 86.1354 125.464 85.7031 126.672 85.7031C127.859 85.7031 128.839 86.1354 129.609 87C130.38 87.8646 130.766 88.9896 130.766 90.375C130.766 90.6458 130.75 90.9115 130.719 91.1719H124.469C124.469 91.8594 124.672 92.4531 125.078 92.9531C125.495 93.4427 126.062 93.6875 126.781 93.6875C127.281 93.6875 127.719 93.5677 128.094 93.3281C128.479 93.0781 128.771 92.7604 128.969 92.375L130.625 92.9375C130.333 93.6042 129.859 94.1615 129.203 94.6094C128.547 95.0573 127.729 95.2812 126.75 95.2812C125.49 95.2812 124.458 94.8438 123.656 93.9688C122.865 93.0938 122.469 91.9219 122.469 90.4531ZM124.5 89.7812H128.75C128.75 89.0938 128.568 88.5104 128.203 88.0312C127.839 87.5417 127.328 87.2969 126.672 87.2969C126.016 87.2969 125.49 87.5469 125.094 88.0469C124.708 88.5365 124.51 89.1146 124.5 89.7812ZM131.859 90.4531C131.859 89.0052 132.255 87.8542 133.047 87C133.849 86.1354 134.854 85.7031 136.062 85.7031C137.25 85.7031 138.229 86.1354 139 87C139.771 87.8646 140.156 88.9896 140.156 90.375C140.156 90.6458 140.141 90.9115 140.109 91.1719H133.859C133.859 91.8594 134.062 92.4531 134.469 92.9531C134.885 93.4427 135.453 93.6875 136.172 93.6875C136.672 93.6875 137.109 93.5677 137.484 93.3281C137.87 93.0781 138.161 92.7604 138.359 92.375L140.016 92.9375C139.724 93.6042 139.25 94.1615 138.594 94.6094C137.938 95.0573 137.12 95.2812 136.141 95.2812C134.88 95.2812 133.849 94.8438 133.047 93.9688C132.255 93.0938 131.859 91.9219 131.859 90.4531ZM133.891 89.7812H138.141C138.141 89.0938 137.958 88.5104 137.594 88.0312C137.229 87.5417 136.719 87.2969 136.062 87.2969C135.406 87.2969 134.88 87.5469 134.484 88.0469C134.099 88.5365 133.901 89.1146 133.891 89.7812Z" fill="white"/>
<defs>
<filter id="filter0_d_1_914" x="0" y="0" width="191" height="191" filterUnits="userSpaceOnUse" color-interpolation-filters="sRGB">
<feFlood flood-opacity="0" result="BackgroundImageFix"/>
<feColorMatrix in="SourceAlpha" type="matrix" values="0 0 0 0 0 0 0 0 0 0 0 0 0 0 0 0 0 0 127 0" result="hardAlpha"/>
<feOffset dy="6"/>
<feGaussianBlur stdDeviation="13"/>
<feComposite in2="hardAlpha" operator="out"/>
<feColorMatrix type="matrix" values="0 0 0 0 0.325 0 0 0 0 0.237894 0 0 0 0 0.135417 0 0 0 0.25 0"/>
<feBlend mode="normal" in2="BackgroundImageFix" result="effect1_dropShadow_1_914"/>
<feBlend mode="normal" in="SourceGraphic" in2="effect1_dropShadow_1_914" result="shape"/>
</filter>
<linearGradient id="paint0_linear_1_914" x1="49.6122" y1="20" x2="140.763" y2="98.7657" gradientUnits="userSpaceOnUse">
<stop stop-color="#D2B490"/>
<stop offset="1" stop-color="#A6835A"/>
</linearGradient>
</defs>
</svg>
