<svg width="28" height="28" viewBox="0 0 28 28" fill="none" xmlns="http://www.w3.org/2000/svg">
<path d="M24.7059 23.8823H27.1765C27.6313 23.8823 28 24.251 28 24.7058C28 25.1606 27.6313 25.5293 27.1765 25.5293H0.823539C0.368703 25.5293 0 25.1606 0 24.7058C0 24.251 0.368703 23.8823 0.823539 23.8823H3.2941V9.88226C3.2941 9.42742 3.6628 9.05872 4.11764 9.05872H11.5294C11.9842 9.05872 12.3529 9.42742 12.3529 9.88226V23.8823H15.647V3.294C15.647 2.83916 16.0157 2.47046 16.4706 2.47046H23.8823C24.3371 2.47046 24.7058 2.83916 24.7058 3.294V23.8823H24.7059ZM4.94118 10.7058V23.8823H10.7059V10.7058H4.94118ZM17.2941 4.11754V23.8823H23.0588V4.11754H17.2941Z" fill="#303030"/>
</svg>
