<svg width="10" height="10" viewBox="0 0 10 10" fill="none" xmlns="http://www.w3.org/2000/svg">
<path d="M3.74997 0C1.68229 0 0 1.68229 0 3.74997C0 5.81776 1.68229 7.49994 3.74997 7.49994C5.81776 7.49994 7.49993 5.81776 7.49993 3.74997C7.49993 1.68229 5.81776 0 3.74997 0ZM3.74997 6.80765C2.06398 6.80765 0.692302 5.43597 0.692302 3.74999C0.692302 2.064 2.06398 0.692302 3.74997 0.692302C5.43595 0.692302 6.80763 2.06398 6.80763 3.74997C6.80763 5.43595 5.43595 6.80765 3.74997 6.80765Z" fill="#BB9B75"/>
<path d="M9.88193 9.30616L7.55133 6.97555C7.39252 6.81674 7.13533 6.81674 6.97653 6.97555C6.81772 7.13422 6.81772 7.39168 6.97653 7.55035L9.30713 9.88096C9.38653 9.96035 9.49047 10.0001 9.59453 10.0001C9.69846 10.0001 9.80252 9.96035 9.88193 9.88096C10.0407 9.72229 10.0407 9.46483 9.88193 9.30616Z" fill="#BB9B75"/>
</svg>
