<svg width="29" height="29" viewBox="0 0 29 29" fill="none" xmlns="http://www.w3.org/2000/svg">
<path d="M8.67338 12.0218C10.5225 12.0218 12.0216 10.5228 12.0216 8.67362C12.0216 6.82447 10.5225 5.32544 8.67338 5.32544C6.82423 5.32544 5.3252 6.82447 5.3252 8.67362C5.3252 10.5228 6.82423 12.0218 8.67338 12.0218Z" fill="white"/>
<path d="M8.67338 23.6746C10.5225 23.6746 12.0216 22.1756 12.0216 20.3265C12.0216 18.4773 10.5225 16.9783 8.67338 16.9783C6.82423 16.9783 5.3252 18.4773 5.3252 20.3265C5.3252 22.1756 6.82423 23.6746 8.67338 23.6746Z" fill="white"/>
<path d="M20.3262 12.0218C22.1754 12.0218 23.6744 10.5228 23.6744 8.67362C23.6744 6.82447 22.1754 5.32544 20.3262 5.32544C18.4771 5.32544 16.978 6.82447 16.978 8.67362C16.978 10.5228 18.4771 12.0218 20.3262 12.0218Z" fill="white"/>
<path d="M20.3262 23.6746C22.1754 23.6746 23.6744 22.1756 23.6744 20.3265C23.6744 18.4773 22.1754 16.9783 20.3262 16.9783C18.4771 16.9783 16.978 18.4773 16.978 20.3265C16.978 22.1756 18.4771 23.6746 20.3262 23.6746Z" fill="white"/>
</svg>
